<?xml version="1.0" encoding="utf-8"?>
<!-- Generator: Adobe Illustrator 22.1.0, SVG Export Plug-In . SVG Version: 6.00 Build 0)  -->
<svg version="1.1" id="Layer_1" xmlns="http://www.w3.org/2000/svg" xmlns:xlink="http://www.w3.org/1999/xlink" x="0px" y="0px"
	 viewBox="0 0 158 33" style="enable-background:new 0 0 158 33;" xml:space="preserve">
<style type="text/css">
	.st0{fill:#423A3A;}
	.st1{fill:url(#SVGID_1_);}
</style>
<path class="st0" d="M53.7,10.2c0,0.6-0.1,1.1-0.3,1.5c-0.2,0.4-0.5,0.8-0.9,1.1c-0.4,0.3-0.9,0.5-1.5,0.6c-0.6,0.1-1.3,0.2-1.9,0.2
	h-5.9V1.1h5.8c1.3,0,2.3,0.3,3,0.9C52.6,2.6,53,3.4,53,4.4v0c0,0.4,0,0.7-0.1,0.9c-0.2,0.5-0.5,1-0.9,1.3c-0.2,0.2-0.4,0.3-0.6,0.4
	c0.7,0.3,1.3,0.6,1.7,1.1C53.5,8.7,53.7,9.3,53.7,10.2L53.7,10.2L53.7,10.2z M50.3,4.9L50.3,4.9c0-0.5-0.2-0.8-0.5-1
	c-0.3-0.2-0.8-0.3-1.3-0.3h-2.7v2.6h2.5c0.6,0,1.1-0.1,1.4-0.3C50.1,5.7,50.3,5.3,50.3,4.9L50.3,4.9z M51,9.9L51,9.9
	c0-0.5-0.2-0.8-0.5-1c-0.3-0.2-0.8-0.4-1.6-0.4h-3.2v2.8H49c0.6,0,1.1-0.1,1.4-0.3S51,10.3,51,9.9z M72.9,13.6H70l-1.1-2.8h-5.3
	l-1.1,2.8h-2.8L65,1h2.5C67.6,1,72.9,13.6,72.9,13.6z M67.9,8.4l-1.7-4.1l-1.7,4.1L67.9,8.4L67.9,8.4z M88.6,9.9
	c0,0.6-0.1,1.2-0.3,1.7c-0.2,0.5-0.5,0.9-0.9,1.2c-0.4,0.3-0.9,0.6-1.4,0.8c-0.6,0.2-1.2,0.3-1.9,0.3c-1,0-1.9-0.2-2.8-0.5
	c-0.9-0.3-1.8-0.8-2.5-1.5l1.6-1.9c0.5,0.4,1.1,0.8,1.8,1.1c0.6,0.3,1.3,0.4,2,0.4c0.6,0,1-0.1,1.3-0.3c0.3-0.2,0.5-0.5,0.5-0.9v0
	c0-0.2,0-0.3-0.1-0.5c-0.1-0.1-0.2-0.3-0.4-0.4c-0.2-0.1-0.5-0.3-0.8-0.4c-0.4-0.1-0.8-0.3-1.3-0.4c-0.6-0.1-1.2-0.3-1.7-0.5
	c-0.5-0.2-0.9-0.4-1.3-0.7c-0.4-0.3-0.6-0.6-0.8-1c-0.2-0.4-0.3-0.9-0.3-1.6v0c0-0.6,0.1-1.1,0.3-1.5c0.2-0.5,0.5-0.9,0.9-1.2
	c0.4-0.3,0.9-0.6,1.4-0.8C82.4,1,83,0.9,83.6,0.9c0.9,0,1.8,0.1,2.5,0.4c0.8,0.3,1.5,0.7,2.1,1.2l-1.4,2.1c-0.5-0.4-1.1-0.7-1.6-0.9
	c-0.5-0.2-1.1-0.3-1.6-0.3c-0.5,0-0.9,0.1-1.2,0.3C82.1,3.9,82,4.2,82,4.5v0c0,0.2,0,0.4,0.1,0.5c0.1,0.1,0.2,0.3,0.4,0.4
	c0.2,0.1,0.5,0.2,0.8,0.3c0.4,0.1,0.8,0.2,1.3,0.4c0.6,0.2,1.2,0.4,1.7,0.6c0.5,0.2,0.9,0.5,1.3,0.8c0.3,0.3,0.6,0.6,0.8,1
	C88.6,8.9,88.6,9.3,88.6,9.9L88.6,9.9L88.6,9.9z M105.4,13.3h-9.5V0.8h9.4v2.4h-6.7v2.5h5.9v2.4h-5.9v2.6h6.8L105.4,13.3L105.4,13.3
	z M55.3,32.3h-2.9l-1.1-2.8h-5.3l-1.1,2.8H42l5.4-12.6h2.5C49.9,19.7,55.3,32.3,55.3,32.3z M50.3,27L48.6,23L46.9,27
	C46.9,27,50.3,27,50.3,27z M71.8,24.1c0,0.7-0.1,1.4-0.4,1.9c-0.3,0.5-0.6,1-1.1,1.4c-0.5,0.4-1,0.6-1.6,0.8c-0.6,0.2-1.3,0.3-2,0.3
	h-2.1v3.8h-2.8V19.8h5.1c0.8,0,1.4,0.1,2,0.3c0.6,0.2,1.1,0.5,1.5,0.9s0.7,0.8,0.9,1.4S71.8,23.4,71.8,24.1L71.8,24.1L71.8,24.1z
	 M69.1,24.2L69.1,24.2c0-0.7-0.2-1.1-0.6-1.4c-0.4-0.3-0.9-0.5-1.6-0.5h-2.1v3.8h2.2c0.7,0,1.2-0.2,1.6-0.5
	C68.9,25.2,69.1,24.7,69.1,24.2z M88.5,24.1c0,0.7-0.1,1.4-0.4,1.9c-0.3,0.5-0.6,1-1.1,1.4c-0.5,0.4-1,0.6-1.6,0.8
	c-0.6,0.2-1.3,0.3-2,0.3h-2.1v3.8h-2.8V19.8h5.1c0.8,0,1.4,0.1,2,0.3c0.6,0.2,1.1,0.5,1.5,0.9c0.4,0.4,0.7,0.8,0.9,1.4
	S88.5,23.4,88.5,24.1L88.5,24.1L88.5,24.1z M85.7,24.2L85.7,24.2c0-0.7-0.2-1.1-0.6-1.4c-0.4-0.3-0.9-0.5-1.6-0.5h-2.1v3.8h2.2
	c0.7,0,1.2-0.2,1.6-0.5C85.6,25.2,85.7,24.7,85.7,24.2z M107.5,32.3h-2.9l-1.1-2.8h-5.3l-1.1,2.8h-2.8l5.4-12.6h2.5
	C102.2,19.7,107.5,32.3,107.5,32.3z M102.5,27l-1.7-4.1L99.2,27L102.5,27L102.5,27z M125,32.3h-3.2l-2.7-4H117v4h-2.8V19.8h5.7
	c1.5,0,2.6,0.4,3.5,1.1c0.8,0.7,1.2,1.7,1.2,3v0c0,1-0.2,1.8-0.7,2.5c-0.5,0.6-1.2,1.1-1.9,1.4L125,32.3z M121.8,24.1L121.8,24.1
	c0-0.6-0.2-1.1-0.6-1.4c-0.4-0.3-0.9-0.4-1.6-0.4H117v3.6h2.8c0.7,0,1.2-0.2,1.6-0.5C121.7,25,121.8,24.6,121.8,24.1L121.8,24.1z
	 M141.4,32.3h-9.5V19.8h9.4v2.4h-6.7v2.5h5.9v2.4h-5.9v2.6h6.8V32.3z M157.6,32.3h-9V19.8h2.8v10h6.2V32.3z"/>
<linearGradient id="SVGID_1_" gradientUnits="userSpaceOnUse" x1="-851.6129" y1="540.129" x2="-850.6129" y2="539.129" gradientTransform="matrix(31 0 0 -31 26400 16745)">
	<stop  offset="0" style="stop-color:#F8BFBF"/>
	<stop  offset="1" style="stop-color:#EE8B8B"/>
</linearGradient>
<path class="st1" d="M15.5,32C6.9,32,0,25.1,0,16.5S6.9,1,15.5,1S31,7.9,31,16.5S24.1,32,15.5,32z M15.5,28.5
	c6.9,0,12.5-5.4,12.5-12s-5.6-12-12.5-12S3,9.9,3,16.5S8.6,28.5,15.5,28.5z"/>
</svg>
